<?xml version="1.0" ?><svg id="Lager_1" style="enable-background:new 0 0 128 128;" version="1.1" viewBox="0 0 128 128" xml:space="preserve" xmlns="http://www.w3.org/2000/svg" xmlns:xlink="http://www.w3.org/1999/xlink"><style type="text/css">
	.st0{fill:#214674;}
	.st1{fill:#F6F6F6;}
</style><g><g><g><g><circle class="st0" cx="64" cy="64" r="50"/></g></g></g></g><g><path class="st1" d="M75.3,63.4c4,1.4,6.1,3.8,6.1,7.3c0,2.3-0.8,4-2.5,5.4c-1.7,1.3-4,2.1-7.1,2.1   c-2.9,0-5.6-0.8-8.1-2.1c-0.3-0.2-0.5-0.5-0.5-0.9c0.1-0.6,0.3-1.3,0.6-2c0.3-0.6,0.5-1.1,0.8-1.6c0.3-0.4,0.7-0.5,1.2-0.3   c2.2,1,4,1.6,5.7,1.6c0.8,0,1.5-0.1,2-0.4c0.5-0.3,0.7-0.7,0.7-1.1c0-0.9-0.7-1.6-2.1-2l-2.5-0.9c-3.8-1.4-5.7-3.6-5.7-6.8   c0-2.3,0.8-4.1,2.4-5.4c1.6-1.3,3.7-2.5,6.4-2.5c1.3,0,2.8,0.2,4.4,0.6c1.4,0.3,2.5,1,3.5,1.6c0.3,0.2,0.5,0.5,0.5,0.9   c0,0.7-0.2,1.4-0.5,2.2c-0.3,0.7-0.6,1.3-1,1.7c-0.3,0.3-0.7,0.4-1,0.2c-2.3-1-4.2-1.5-5.8-1.5c-0.6,0-1.1,0.1-1.4,0.4   c-0.3,0.3-0.5,0.6-0.5,1c0,0.7,0.6,1.3,1.7,1.7L75.3,63.4L75.3,63.4z" id="path21_1_"/><path class="st1" d="M93.9,67c-1.3,1.1-2,2.7-2,4.9v7.9c0,2.6-0.8,4.6-2.6,6c-1.8,1.4-3.9,2-6.3,2.1l-1.4,0v-3.3   c0-0.4,0.2-0.7,0.6-0.8c0.9-0.3,1.3-0.7,1.7-1.1c0.9-0.8,1.6-2.2,1.6-4v-6.4c0-2.2,0.2-3.9,1-5.1c0.6-0.9,1.6-1.7,3-2.5   c0.6-0.3,0.6-1.2,0-1.6c-1.7-1-2.8-2.2-3.5-3.7c-0.5-1.1-0.5-2.6-0.5-4.5v-5.8c0-1.9-0.6-3.3-1.4-4c-0.4-0.4-0.9-0.8-1.8-1   c-0.4-0.1-0.6-0.5-0.6-0.9v-2.1c0-0.5,0.4-0.9,0.9-0.9c1.1,0,1.9,0,2.7,0c1.5,0,2.8,0.8,3.9,1.7c1.2,1,2.1,2.2,2.6,3.9   c0.3,0.9,0.3,1.8,0.3,2.7v6.7c0,2.4,0.7,4.2,1.9,5.3c0.6,0.6,1.4,1.1,2.7,1.6c0.4,0.1,0.6,0.5,0.6,0.8v1.7c0,0.4-0.2,0.7-0.6,0.9   C95.3,65.9,94.5,66.4,93.9,67L93.9,67z" id="path27_1_"/><path class="st1" d="M44.8,40.2L44.8,40.2c-0.5,0-0.9,0-1.3,0c-1.5,0-2.8,0.8-3.9,1.7c-1.2,1-2.3,2.2-2.6,3.9   c-0.2,1-0.1,1.8-0.1,2.7v6.7c0,2.4-0.9,4.1-2.1,5.3c-0.6,0.6-1.8,1.1-3.2,1.6C31.2,62.3,31,62.6,31,63v1.7c0,0.4,0.2,0.7,0.6,0.9   c1.2,0.4,2.3,0.9,3,1.5c1.3,1.1,2.2,2.7,2.2,4.9v7.9c0,2.6,0.6,4.6,2.4,6c1.8,1.4,3.9,2,6.3,2.1l0.7,0c0.5,0,0.9-0.4,0.9-0.9v-2.4   c0-0.4-0.2-0.7-0.6-0.8c-0.9-0.3-1.5-0.7-1.9-1.1c-0.9-0.8-1.4-2.2-1.4-4v-6.4c0-2.2-0.4-3.9-1.2-5.1c-0.6-0.9-1.6-1.7-3-2.5   c-0.6-0.3-0.6-1.2,0-1.6c1.7-1,2.8-2.2,3.5-3.7c0.5-1.1,0.7-2.6,0.7-4.5v-5.8c0-1.9,0.4-3.3,1.2-4c0.4-0.4,1.1-0.7,2.1-1   c0.1,0,0.2,0,0.3,0l0.6,0c0.5,0,0.9-0.4,0.9-0.9v-2.1c0-0.5-0.4-0.9-0.9-0.9L44.8,40.2L44.8,40.2L44.8,40.2L44.8,40.2z" id="path29_1_"/><path class="st1" d="M61,72.1h-1.2c-1.3,0-1.8-0.7-1.8-2.1V44.1c0-1.6-0.5-2.7-1-3.3c-0.6-0.6-1.6-0.6-3-0.6l-2.2,0   c-0.5,0-0.9,0.4-0.9,0.9l0,3v27.2c0,2.2,0.5,3.7,1.4,4.8c0.9,1,2.3,1.5,4.4,1.5c1.3,0,2.7-0.1,4.2-0.3c0.4-0.1,0.7-0.4,0.8-0.8   c0-0.3,0-0.7,0-1.2C61.5,74.1,61.3,73.1,61,72.1L61,72.1z" id="path31_1_"/></g></svg>