<?xml version="1.0" encoding="UTF-8"?>
<svg xmlns="http://www.w3.org/2000/svg" xmlns:xlink="http://www.w3.org/1999/xlink" width="40pt" height="40pt" viewBox="0 0 40 40" version="1.1">
<g id="surface1">
<path style=" stroke:none;fill-rule:nonzero;fill:rgb(36%,36%,36%);fill-opacity:1;" d="M 36 0.800781 L 4 0.800781 C 2.238281 0.800781 0.800781 2.238281 0.800781 4 L 0.800781 36 C 0.800781 37.761719 2.238281 39.199219 4 39.199219 L 36 39.199219 C 37.761719 39.199219 39.199219 37.761719 39.199219 36 L 39.199219 4 C 39.199219 2.238281 37.761719 0.800781 36 0.800781 Z M 36 0.800781 "/>
<path style=" stroke:none;fill-rule:nonzero;fill:rgb(100%,100%,100%);fill-opacity:1;" d="M 17.039062 16.558594 L 21.199219 16.558594 L 21.199219 18.640625 C 21.761719 17.519531 23.28125 16.558594 25.359375 16.558594 C 29.761719 16.558594 30.238281 19.039062 30.238281 22.800781 L 30.238281 30.398438 L 26.078125 30.398438 L 26.078125 23.441406 C 26.078125 21.839844 26.238281 20 24 20 C 21.199219 20 21.199219 21.679688 21.199219 23.441406 L 21.199219 30.398438 L 17.039062 30.398438 Z M 17.039062 16.558594 "/>
<path style=" stroke:none;fill-rule:nonzero;fill:rgb(100%,100%,100%);fill-opacity:1;" d="M 10.160156 16.558594 L 14.320312 16.558594 L 14.320312 30.398438 L 10.160156 30.398438 Z M 10.160156 16.558594 "/>
<path style=" stroke:none;fill-rule:nonzero;fill:rgb(100%,100%,100%);fill-opacity:1;" d="M 14.640625 12 C 14.640625 13.324219 13.566406 14.398438 12.238281 14.398438 C 10.914062 14.398438 9.839844 13.324219 9.839844 12 C 9.839844 10.675781 10.914062 9.601562 12.238281 9.601562 C 13.566406 9.601562 14.640625 10.675781 14.640625 12 Z M 14.640625 12 "/>
</g>
</svg>
